<?xml version="1.0" encoding="utf-8"?>
<!-- Generator: Adobe Illustrator 19.0.1, SVG Export Plug-In . SVG Version: 6.00 Build 0)  -->
<svg version="1.1" id="Layer_1" xmlns="http://www.w3.org/2000/svg" xmlns:xlink="http://www.w3.org/1999/xlink" x="0px" y="0px"
	 viewBox="0 0 400 200" style="enable-background:new 0 0 400 200;" xml:space="preserve">
<path d="M66.2,137V62.7h59.5v8.6H76.4V93h29.8v8.6H76.4v26.9h52.3v8.6H66.2z"/>
<path d="M162.6,111.8h-4l-24.7-49.1h8.2l18.5,36.7l18.2-36.7h8.5L162.6,111.8z"/>
<path d="M264.6,116.9V106h-20.3v-8.6h29.5v22.4c-3.6,6.2-8.3,10.9-14,14.2c-5.8,3.3-12.3,4.9-19.6,4.9c-11.1,0-20.3-3.7-27.6-11
	c-7.3-7.3-10.9-16.6-10.9-27.9c0-11.3,3.6-20.6,10.9-28c7.3-7.3,16.5-11,27.5-11c6.9,0,13.1,1.5,18.8,4.5c5.7,3,10.3,7.3,13.8,12.9
	l-7.7,5.5c-2.3-4.4-5.7-7.9-10.1-10.4c-4.4-2.5-9.3-3.8-14.7-3.8c-8.4,0-15.3,2.9-20.7,8.6c-5.5,5.7-8.2,13-8.2,21.7
	s2.7,16,8.2,21.7c5.5,5.7,12.4,8.6,20.7,8.6c5.2,0,9.8-1.1,13.9-3.4C258.1,124.7,261.6,121.3,264.6,116.9z"/>
<path d="M288.7,110.1V61h45v7.2h-37.3v12.2h25.2v7.1h-25.2v15.5h39.5v7.1H288.7z"/>
<path d="M10,10v180h380V10H10z M380,180H20V20h360V180z"/>
</svg>
